<svg height="37" viewBox="0 0 120 37" width="120" xmlns="http://www.w3.org/2000/svg"><path d="m5.60353596 31.474791c1.50201683.015961 2.75858665 1.290772 2.75241682 2.7923977-.00594547 1.474408-1.28831639 2.7343779-2.78119066 2.7328098-1.49932455-.0016241-2.76974843-1.2777231-2.76251291-2.7750925.00717944-1.4921611 1.30003907-2.765964 2.79128675-2.750115zm57.50586284-16.4436341c.8834687 0 1.7264567.1696391 2.5048609.5043407.7771682.3340914 1.4659586.7929713 2.0472124 1.3638252.5824898.5723795 1.0484817 1.2600891 1.384379 2.0442124.3368244.7853436.5073997 1.6310983.5073997 2.5137709 0 1.1767951-.2873823 2.2632787-.8541125 3.2283299-.4315197.7357809-.9873162 1.3599455-1.6543675 1.8592083l-.2553339.1813428-.2141462.1440102.1690302.1943527c.3346613.3838237.6254427.829279.8643099 1.3238563.3145754.6517071.4740262 1.3500954.4740262 2.0759434 0 .6776411-.1430731 1.3272124-.4252021 1.9301025-.280584.6007544-.6745758 1.1310291-1.170542 1.5758742-.493185.4424041-1.0719667.7990734-1.7196583 1.0602444-.5567535.2246454-1.1532372.3544713-1.7775808.3869798l-.3144385.0081329h-.1511074v-2.3563361h.1511074c.4150047 0 .8161038-.0695642 1.1918639-.2071672.374524-.1372978.703314-.3295148.9764816-.5720743.2731677-.2413391.492567-.5208165.6520179-.8308045.1560516-.3035808.235159-.6385876.235159-.9949517 0-.3594153-.0682919-.697168-.2030217-1.0031896-.1362748-.3090727-.327863-.5876348-.5701293-.8286688-.2419573-.2416442-.5225413-.4329458-.8340266-.5690232-.3093222-.1351621-.6507817-.2038111-1.0141813-.2038111-.8837777 0-1.7224394-.1696391-2.4934273-.5046458-.7694429-.3343965-1.4539071-.7972428-2.0354699-1.3763346-.5818718-.5800071-1.0472457-1.2631401-1.383143-2.0301774-.3371334-.7697833-.5077086-1.6079103-.5077086-2.4911931 0-.8829777.1705752-1.7287324.5070906-2.5137709.3362063-.7841233.8018892-1.4718329 1.3846881-2.0442124.5809447-.5705488 1.265409-1.0294287 2.0345428-1.3638252.7706788-.3347016 1.6096496-.5043407 2.4934273-.5043407zm-44.2233399-10.89668851c7.4134541-.00199914 13.3782426 5.95584341 13.3685151 13.35295781-.0096218 7.2975786-6.0317184 13.2745708-13.3690438 13.2692047-7.3522339-.0054714-13.35022306-6.0066636-13.34176432-13.3488544.00845874-7.3289334 5.98160032-13.27120376 13.34229302-13.27330811zm16.6352633 19.60212161c1.3864073.0011527 2.5264725 1.1652175 2.5150686 2.5679742-.0109081 1.3459448-1.1641954 2.464972-2.5303565 2.4550093-1.3726069-.0099626-2.5237456-1.1718044-2.5092014-2.5328167.014131-1.3312068 1.1901435-2.4912372 2.5244893-2.4901668zm84.4786778-18.05907749v22.21906239h-2.627539v-22.21906239zm-73.0901302 0v22.21906239h-2.6275392v-22.21906239zm6.9515526 9.48239919v12.724459h-2.6275391v-12.724459zm34.5077026-9.48227714v9.51870684h3.6741668v2.4799042h-3.6741668v10.1807875h-2.602509v-22.17939854zm-13.3992595 0v10.07308504l.3226097-.1354672c.7008419-.2944276 1.5086024-.4436246 2.4013415-.4436246 1.4817182 0 2.719625.4176906 3.6788019 1.2408674.5865071.5052561 1.006456 1.0785508 1.2496494 1.7076801.2140618.5134107.3318444 1.2724194.3514903 2.2589168l.0029478.3027558v7.1611503h-2.5193845v-7.0958576c0-2.255651-.9298207-3.3994945-2.7635049-3.3994945-1.5399157 0-2.4452578.8142916-2.6942684 2.4216607l-.0287558.2141527-.000927 7.8735736h-2.5929297v-22.17939854zm30.7454365 9.50793664v7.0958576c0 2.255651.92982 3.3994945 2.763814 3.3994945 1.770453 0 2.698592-1.0663179 2.760497-3.1701187l.003317-.2293758v-7.0958576h2.519075v7.1611503c0 .9919007-.12515 1.8577924-.370507 2.5696054-.232687.6236373-.643674 1.1960168-1.220602 1.7003575-.959177.8228718-2.201101 1.2402572-3.69178 1.2402572-1.481719 0-2.719625-.4173854-3.678802-1.2408674-.586816-.5052561-1.006456-1.0785508-1.249959-1.7079852-.2135-.5125786-.331487-1.2717638-.351174-2.2585294l-.002955-.3028381v-7.1611503zm-5.081923-9.5037872v2.37220161c-.433236.02532383-.849168.12234764-1.2391427.28924079-.4564125.19557315-.8587476.4634565-1.196808.79632749-.3380605.33287099-.6099921.7295092-.8080695 1.17923591-.1666096.3768063-.2645496.7784025-.2925683 1.1966665l-.0084106.2528936v3.3918669h3.5449991v2.5372642h-3.5449991v10.0627114h-2.4062856l-.000309-16.4516377c.071691-.9540675.3544381-1.84650344.8398978-2.65198411.4863867-.80731131 1.1343874-1.47701968 1.921753-1.98807276.5172881-.31181865 1.0577521-.5552935 1.6059415-.72371218.5040005-.15560422 1.0358124-.24377995 1.5840014-.26300165zm-39.0635765 11.9825014c-.4836057.2062519-.9084988.4957978-1.2626279.86101-.3547471.3658225-.6421294.7990735-.8538034 1.2872436-.210129.485119-.3167385 1.0080712-.3167385 1.5545166 0 .5464455.1066095 1.0690926.3167385 1.5536014.211365.4884752.4984382.9168445.8525673 1.2744291.3553652.358805.7811854.6489611 1.265409.8628407.4832966.2138795 1.0049109.3218871 1.5500102.3218871.5608589 0 1.0905075-.1080076 1.5734951-.3218871.4845327-.2138796.9103528-.5040357 1.265718-.8628407.3538201-.3569744.6362581-.7850386.8398978-1.2722933.2030217-.4857293.3059231-1.0089866.3059231-1.5557372 0-.5470556-.1029014-1.070618-.3059231-1.5563473-.2039487-.4875599-.4866957-.9202006-.8411339-1.2854129-.3541291-.3652122-.7790222-.6547581-1.2626278-.86101-.9545418-.4064016-2.1445515-.4179957-3.1269044 0zm-46.7422363-7.5021572c-1.5088693 0-2.7320965 1.262689-2.7320965 2.820235 0 1.9039185 2.1427013 2.4537536 2.1427013 4.463188 0 2.0093214-2.1427013 2.5591565-2.1427013 4.463075 0 1.557433 1.2232272 2.8203479 2.7320965 2.8203479 1.8443074 0 2.376959-2.2119386 4.3235942-2.2119386 1.9466351 0 2.4792867 2.2119386 4.3235941 2.2119386 1.5088694 0 2.7320965-1.2629149 2.7320965-2.8203479 0-1.5575461-1.2232271-2.820461-2.7320965-2.820461-1.8443074 0-2.376959 2.2119387-4.3235941 2.2119387-.9389129 0-1.5749088-.5311487-2.1462222-1.1048396l-.2599577-.266022c-.6427497-.6635979-1.3279097-1.3652675-1.3279097-2.4836911 0-2.0094344 2.1427013-2.5592695 2.1427013-4.463188 0-1.557546-1.2233365-2.820235-2.7322059-2.820235zm-13.30423354 6.2639151c.85177658.007111 1.51675844.6937695 1.50023335 1.5493274-.01597425.8312471-.70268355 1.4796769-1.55060427 1.4641788-.83102842-.0151943-1.48823737-.704527-1.47269154-1.5447083.01505619-.812467.70268355-1.4756049 1.52306246-1.4687979zm50.92923684-7.6552331c.4993653 0 .9131339.16841868 1.266336.51623988.35073.3377527.5213052.74018792.5213052 1.23079892 0 .4915262-.1708842.8991483-.5240863 1.2469695-.3426956.3456854-.7515201.513799-1.2499583.513799-.4993653 0-.913134-.1687238-1.264791-.5150194-.351657-.3466008-.5228503-.7584943-.5228503-1.2591738 0-.473525.1711933-.87199387.5228503-1.21859464.351657-.34660078.7610995-.51501946 1.2511944-.51501946zm-19.5619961-8.7708078c.9996112.00157162 1.7639528.77201751 1.7591335 1.77331776-.0048193.99344213-.7812529 1.75035457-1.7877864 1.74275838-.9747261-.00733426-1.737841-.7747242-1.7400316-1.74991801-.0021906-.99623612.7703-1.76772976 1.7686845-1.76615813z" fill="#fff" fill-rule="evenodd"/></svg>